<svg width="750" height="1491" viewBox="0 0 750 1491" fill="none" xmlns="http://www.w3.org/2000/svg">
<g opacity="0.75" filter="url(#filter0_d)">
<path d="M456.644 333.055C489.044 264.711 446.776 217.369 421.592 202.24C332.433 147.823 262.304 175.564 156.453 209.147C50.6008 242.73 -23.8952 343.236 -57.7372 408.983C-91.5792 474.731 -71.7758 582.038 -57.506 640.86C-43.2363 699.682 63.0857 787.535 117.114 799.906C171.142 812.278 195.746 820.601 265.801 809.287C335.856 797.974 377.133 779.456 417.054 753.098C456.976 726.739 417.133 664.328 403.44 660.54C389.747 656.751 317.514 632.105 299.196 602.707C280.878 573.309 282.429 551.266 285.632 513.119C288.834 474.971 347.679 441.305 355.793 435.402C363.906 429.499 416.143 418.486 456.644 333.055Z" fill="#BF34AF"/>
</g>
<path d="M333.327 366.47C360.387 309.39 325.085 269.85 304.052 257.215C229.587 211.767 171.017 234.935 82.6104 262.984C-5.79574 291.032 -68.0139 374.973 -96.2784 429.885C-124.543 484.796 -108.003 574.417 -96.0853 623.545C-84.1674 672.673 4.63154 746.046 49.7552 756.379C94.8788 766.711 115.427 773.663 173.937 764.214C232.446 754.765 266.92 739.299 300.262 717.285C333.604 695.271 300.328 643.146 288.892 639.981C277.455 636.817 217.127 616.233 201.828 591.68C186.529 567.128 187.825 548.717 190.499 516.857C193.174 484.997 242.321 456.879 249.097 451.949C255.873 447.019 299.501 437.821 333.327 366.47Z" fill="#7431D7"/>
<path opacity="0.5" d="M639.656 409.309C768.644 360.666 859.352 459.35 954.213 556.216C1011.87 615.088 1035.51 661.618 1067.04 729.582C1105.51 812.483 1127.49 881.646 1104.96 968.513C1086.48 1039.75 1053.06 1090.26 994.348 1134.63C894.319 1210.23 756.62 1263.43 638.632 1220.99C563.33 1193.91 496.841 1169.35 478.478 1090.89C458.348 1004.87 588.031 892.984 588.031 892.984C588.031 892.984 649.657 816.809 604.384 753.616C555.111 684.838 496.888 642.637 499.843 563.859C502.893 482.528 563.503 438.027 639.656 409.309Z" fill="url(#paint0_linear)"/>
<path opacity="0.5" d="M702.703 487.201C798.108 451.222 865.2 524.214 935.365 595.86C978.009 639.405 995.494 673.821 1018.82 724.09C1047.27 785.408 1063.53 836.564 1046.86 900.815C1033.2 953.505 1008.48 990.862 965.05 1023.68C891.064 1079.6 789.215 1118.95 701.946 1087.56C646.248 1067.53 597.07 1049.36 583.488 991.328C568.599 927.709 664.519 844.95 664.519 844.95C664.519 844.95 710.1 788.608 676.614 741.867C640.169 690.995 597.105 659.782 599.29 601.514C601.546 541.358 646.376 508.442 702.703 487.201Z" fill="url(#paint1_linear)"/>
<path d="M771.505 589.381C843.505 562.229 894.137 617.314 947.088 671.384C979.271 704.246 992.466 730.218 1010.07 768.156C1031.54 814.431 1043.81 853.037 1031.23 901.525C1020.92 941.289 1002.26 969.481 969.491 994.25C913.656 1036.45 836.793 1066.14 770.933 1042.46C728.9 1027.34 691.787 1013.63 681.537 969.832C670.3 921.821 742.688 859.365 742.688 859.365C742.688 859.365 777.087 816.845 751.816 781.571C724.312 743.18 691.813 719.623 693.462 675.65C695.165 630.252 728.997 605.412 771.505 589.381Z" fill="url(#paint2_linear)"/>
<path d="M21.9327 -130.634C11.3033 -240.976 116.469 -398.285 116.469 -398.285C116.469 -398.285 228.937 -535.733 323.66 -594.372C447.885 -671.274 540.612 -734.413 682.581 -699.912C875.335 -653.069 913.984 -468.618 963.04 -276.416C1013.12 -80.2045 1078.88 120.703 915.187 239.908C850.352 287.122 799.97 318.386 720.73 305.984C630.093 291.797 625.877 192.045 543.362 151.949C420.92 92.4513 350.096 160.025 195.332 132.226C40.5685 104.427 33.7246 -8.22415 21.9327 -130.634Z" fill="url(#paint3_linear)"/>
<path d="M78.1986 -288.753C84.5717 -399.422 212.561 -538.795 212.561 -538.795C212.561 -538.795 344.729 -657.423 447.306 -700.884C581.832 -757.88 683.126 -806.093 818.148 -750.283C1001.47 -674.509 1011.45 -486.317 1030.53 -288.872C1050.01 -87.3101 1084.27 121.292 904.266 214.057C832.972 250.798 778.401 273.989 701.991 249.612C614.59 221.729 625.681 122.505 550.27 70.2597C438.369 -7.26564 358.042 48.6803 209.352 -2.46354C60.6613 -53.6075 71.1286 -165.98 78.1986 -288.753Z" fill="url(#paint4_linear)"/>
<path d="M149.071 -439.364C169.867 -548.248 314.988 -669.681 314.988 -669.681C314.988 -669.681 461.538 -770.001 568.919 -799.669C709.744 -838.579 816.474 -873.127 943.035 -800.134C1114.87 -701.03 1100.15 -513.15 1093.24 -314.906C1086.18 -112.528 1092.86 98.7637 902.268 167.185C826.78 194.284 769.644 210.137 697.08 175.974C614.077 136.898 638.053 39.9776 570.124 -21.6834C469.325 -113.18 382.371 -68.2229 241.648 -138.378C100.925 -208.532 126.002 -318.57 149.071 -439.364Z" fill="url(#paint5_linear)"/>
<path d="M466.329 981.528C466.329 981.528 504.806 1066.5 504.551 1124.17C503.953 1259.04 420.154 1357.09 290.864 1395.47C104.544 1450.78 13.7288 1240.55 -91.9249 1077.42C-262.942 813.362 -462.3 303.766 -149.127 273.874C-89.3088 268.164 -81.5459 250.545 4.02086 288.772C89.5876 326.998 122.025 250.441 216.87 248.146C311.715 245.852 294.986 342.065 197.77 380.047C100.555 418.028 158.825 485.197 158.825 485.197C158.825 485.197 216.373 539.913 196.606 570.533C180.738 595.114 173.148 588.751 124.241 589.923C75.3332 591.096 70.326 647.027 75.7766 690.166C84.265 757.349 165.567 759.811 233.217 762.83C287.177 765.239 366.815 727.033 366.815 727.033C366.815 727.033 507.132 699.292 518.498 758.73C526.757 801.921 471.578 812.524 460.006 854.947C446.981 902.697 466.329 981.528 466.329 981.528Z" fill="#FE2F67"/>
<path opacity="0.75" d="M828.174 199.944C838.877 178.487 828.433 161.855 835.711 139.008C855.721 76.1918 898.832 47.1313 961.375 26.2833C1117.84 -25.8737 1185 332.028 1058.11 437.392C995.755 489.166 935.878 502.099 856.404 486.218C811.758 477.296 769.982 469.848 750.732 436.971C731.482 404.095 714.123 400.542 664.196 403.479C614.27 406.416 578.685 374.58 571.022 328.51C561.299 270.056 594.742 180.456 684.125 227.355C773.507 274.255 802.612 251.187 828.174 199.944Z" fill="url(#paint6_linear)"/>
<g opacity="0.45">
<mask id="mask0" mask-type="alpha" maskUnits="userSpaceOnUse" x="-90" y="-106" width="459" height="451">
<path opacity="0.5" d="M279.946 143.988C88.2182 152.106 169.978 76.5025 152.337 26.7875C127.976 -41.86 36.3864 -41.3327 36.3864 -41.3327C36.3864 -41.3327 -6.15395 -37.0424 -26.0477 17.906C-38.9053 53.4198 -52.6219 69.0277 -49.6718 130.137C-46.7217 191.247 -1.97213 244.139 33.1822 266.788C75.041 293.757 114.633 296.545 140.642 297.657C167.047 298.785 255.194 282.624 285.61 262.542C328.398 234.291 405.369 138.678 279.946 143.988Z" fill="#C4C4C4"/>
</mask>
<g mask="url(#mask0)">
<path d="M633.947 209.871L630.345 216.11L-118.285 -216.112L-114.683 -222.351L633.947 209.871Z" fill="white"/>
<path d="M626.744 222.348L623.142 228.587L-125.489 -203.635L-121.887 -209.874L626.744 222.348Z" fill="white"/>
<path d="M619.54 234.826L615.938 241.064L-132.693 -191.158L-129.091 -197.396L619.54 234.826Z" fill="white"/>
<path d="M612.336 247.303L608.734 253.541L-139.896 -178.681L-136.294 -184.919L612.336 247.303Z" fill="white"/>
<path d="M605.132 259.78L601.531 266.018L-147.1 -166.204L-143.498 -172.442L605.132 259.78Z" fill="white"/>
<path d="M597.929 272.257L594.327 278.496L-154.304 -153.726L-150.702 -159.965L597.929 272.257Z" fill="white"/>
<path d="M590.725 284.734L587.123 290.973L-161.507 -141.249L-157.905 -147.488L590.725 284.734Z" fill="white"/>
<path d="M583.521 297.211L579.92 303.45L-168.711 -128.772L-165.109 -135.011L583.521 297.211Z" fill="white"/>
<path d="M576.318 309.689L572.716 315.927L-175.915 -116.295L-172.313 -122.533L576.318 309.689Z" fill="white"/>
<path d="M569.114 322.166L565.512 328.404L-183.118 -103.818L-179.517 -110.056L569.114 322.166Z" fill="white"/>
<path d="M561.91 334.643L558.308 340.882L-190.322 -91.3405L-186.72 -97.5791L561.91 334.643Z" fill="white"/>
<path d="M554.707 347.12L551.105 353.359L-197.526 -78.8633L-193.924 -85.1019L554.707 347.12Z" fill="white"/>
<path d="M547.503 359.597L543.901 365.836L-204.73 -66.3861L-201.128 -72.6247L547.503 359.597Z" fill="white"/>
<path d="M540.299 372.074L536.697 378.313L-211.933 -53.909L-208.331 -60.1475L540.299 372.074Z" fill="white"/>
<path d="M533.095 384.552L529.494 390.79L-219.137 -41.4318L-215.535 -47.6704L533.095 384.552Z" fill="white"/>
<path d="M525.892 397.029L522.29 403.267L-226.341 -28.9546L-222.739 -35.1932L525.892 397.029Z" fill="white"/>
<path d="M518.688 409.506L515.086 415.745L-233.544 -16.4774L-229.942 -22.716L518.688 409.506Z" fill="white"/>
<path d="M511.484 421.983L507.883 428.222L-240.748 -4.00026L-237.146 -10.2388L511.484 421.983Z" fill="white"/>
<path d="M504.281 434.46L500.679 440.699L-247.952 8.47691L-244.35 2.23832L504.281 434.46Z" fill="white"/>
<path d="M497.077 446.938L493.475 453.176L-255.155 20.9541L-251.554 14.7155L497.077 446.938Z" fill="white"/>
<path d="M489.873 459.415L486.271 465.653L-262.359 33.4313L-258.757 27.1927L489.873 459.415Z" fill="white"/>
<path d="M482.67 471.892L479.068 478.13L-269.563 45.9084L-265.961 39.6698L482.67 471.892Z" fill="white"/>
<path d="M475.466 484.369L471.864 490.608L-276.767 58.3856L-273.165 52.147L475.466 484.369Z" fill="white"/>
<path d="M468.262 496.846L464.66 503.085L-283.97 70.8628L-280.368 64.6242L468.262 496.846Z" fill="white"/>
<path d="M461.058 509.323L457.457 515.562L-291.174 83.34L-287.572 77.1014L461.058 509.323Z" fill="white"/>
<path d="M453.855 521.801L450.253 528.039L-298.378 95.8171L-294.776 89.5785L453.855 521.801Z" fill="white"/>
<path d="M446.651 534.278L443.049 540.516L-305.581 108.294L-301.979 102.056L446.651 534.278Z" fill="white"/>
<path d="M439.447 546.755L435.846 552.993L-312.785 120.771L-309.183 114.533L439.447 546.755Z" fill="white"/>
<path d="M432.244 559.232L428.642 565.471L-319.989 133.249L-316.387 127.01L432.244 559.232Z" fill="white"/>
<path d="M425.04 571.709L421.438 577.948L-327.192 145.726L-323.591 139.487L425.04 571.709Z" fill="white"/>
<path d="M417.836 584.186L414.234 590.425L-334.396 158.203L-330.794 151.964L417.836 584.186Z" fill="white"/>
<path d="M410.633 596.664L407.031 602.902L-341.6 170.68L-337.998 164.442L410.633 596.664Z" fill="white"/>
<path d="M403.429 609.141L399.827 615.379L-348.804 183.157L-345.202 176.919L403.429 609.141Z" fill="white"/>
<path d="M396.225 621.618L392.623 627.857L-356.007 195.635L-352.405 189.396L396.225 621.618Z" fill="white"/>
<path d="M389.021 634.095L385.42 640.334L-363.211 208.112L-359.609 201.873L389.021 634.095Z" fill="white"/>
<path d="M381.818 646.572L378.216 652.811L-370.415 220.589L-366.813 214.35L381.818 646.572Z" fill="white"/>
<path d="M374.614 659.049L371.012 665.288L-377.618 233.066L-374.016 226.827L374.614 659.049Z" fill="white"/>
<path d="M367.41 671.527L363.809 677.765L-384.822 245.543L-381.22 239.305L367.41 671.527Z" fill="white"/>
<path d="M360.207 684.004L356.605 690.242L-392.026 258.02L-388.424 251.782L360.207 684.004Z" fill="white"/>
<path d="M353.003 696.481L349.401 702.72L-399.229 270.498L-395.628 264.259L353.003 696.481Z" fill="white"/>
<path d="M345.799 708.958L342.197 715.197L-406.433 282.975L-402.831 276.736L345.799 708.958Z" fill="white"/>
<path d="M338.596 721.435L334.994 727.674L-413.637 295.452L-410.035 289.213L338.596 721.435Z" fill="white"/>
<path d="M331.392 733.913L327.79 740.151L-420.841 307.929L-417.239 301.69L331.392 733.913Z" fill="white"/>
<path d="M324.188 746.39L320.586 752.628L-428.044 320.406L-424.442 314.168L324.188 746.39Z" fill="white"/>
<path d="M316.984 758.867L313.383 765.105L-435.248 332.883L-431.646 326.645L316.984 758.867Z" fill="white"/>
<path d="M309.781 771.344L306.179 777.583L-442.452 345.361L-438.85 339.122L309.781 771.344Z" fill="white"/>
<path d="M302.577 783.821L298.975 790.06L-449.655 357.838L-446.053 351.599L302.577 783.821Z" fill="white"/>
<path d="M295.373 796.298L291.772 802.537L-456.859 370.315L-453.257 364.076L295.373 796.298Z" fill="white"/>
<path d="M288.17 808.776L284.568 815.014L-464.063 382.792L-460.461 376.554L288.17 808.776Z" fill="white"/>
<path d="M280.966 821.253L277.364 827.491L-471.266 395.269L-467.665 389.031L280.966 821.253Z" fill="white"/>
<path d="M273.762 833.73L270.16 839.968L-478.47 407.746L-474.868 401.508L273.762 833.73Z" fill="white"/>
<path d="M266.559 846.207L262.957 852.446L-485.674 420.224L-482.072 413.985L266.559 846.207Z" fill="white"/>
<path d="M259.355 858.684L255.753 864.923L-492.877 432.701L-489.276 426.462L259.355 858.684Z" fill="white"/>
<path d="M252.151 871.161L248.549 877.4L-500.081 445.178L-496.479 438.939L252.151 871.161Z" fill="white"/>
<path d="M244.948 883.639L241.346 889.877L-507.285 457.655L-503.683 451.417L244.948 883.639Z" fill="white"/>
</g>
</g>
<g opacity="0.45">
<mask id="mask1" mask-type="alpha" maskUnits="userSpaceOnUse" x="91" y="610" width="438" height="452">
<path d="M441.069 851.072C384.841 799.317 379.768 745.687 384.26 725.342C397.587 655.396 323.943 692.282 300.285 698.621C276.627 704.96 275.871 732.757 224.923 695.695C173.974 658.634 153.04 691.837 133.433 710.514C113.827 729.192 145.433 810.963 136.514 841.692C127.595 872.422 157.173 927.142 179.739 938.994C202.305 950.847 228.796 946.731 254.951 933.011C281.106 919.291 319.253 922.494 342.056 938.011C364.858 953.529 375.173 964.189 410.873 977.743C446.573 991.296 454.177 986.276 476.494 983.279C498.81 980.283 516.006 963.742 517.134 937.338C518.263 910.933 511.354 915.767 441.069 851.072Z" fill="#C4C4C4"/>
</mask>
<g mask="url(#mask1)">
<path d="M683.404 823.076L679.803 829.315L-68.828 397.092L-65.2261 390.854L683.404 823.076Z" fill="white"/>
<path d="M676.201 835.553L672.599 841.792L-76.0317 409.57L-72.4298 403.331L676.201 835.553Z" fill="white"/>
<path d="M668.997 848.03L665.395 854.269L-83.2354 422.047L-79.6335 415.808L668.997 848.03Z" fill="white"/>
<path d="M661.793 860.507L658.191 866.746L-90.4391 434.524L-86.8372 428.285L661.793 860.507Z" fill="white"/>
<path d="M654.59 872.985L650.988 879.223L-97.6428 447.001L-94.0409 440.763L654.59 872.985Z" fill="white"/>
<path d="M647.386 885.462L643.784 891.7L-104.846 459.478L-101.245 453.24L647.386 885.462Z" fill="white"/>
<path d="M640.182 897.939L636.58 904.178L-112.05 471.956L-108.448 465.717L640.182 897.939Z" fill="white"/>
<path d="M632.978 910.416L629.377 916.655L-119.254 484.433L-115.652 478.194L632.978 910.416Z" fill="white"/>
<path d="M625.775 922.893L622.173 929.132L-126.458 496.91L-122.856 490.671L625.775 922.893Z" fill="white"/>
<path d="M618.571 935.37L614.969 941.609L-133.661 509.387L-130.059 503.148L618.571 935.37Z" fill="white"/>
<path d="M611.367 947.848L607.766 954.086L-140.865 521.864L-137.263 515.626L611.367 947.848Z" fill="white"/>
<path d="M604.164 960.325L600.562 966.563L-148.069 534.341L-144.467 528.103L604.164 960.325Z" fill="white"/>
<path d="M596.96 972.802L593.358 979.041L-155.272 546.819L-151.671 540.58L596.96 972.802Z" fill="white"/>
<path d="M589.756 985.279L586.154 991.518L-162.476 559.296L-158.874 553.057L589.756 985.279Z" fill="white"/>
<path d="M582.553 997.756L578.951 1003.99L-169.68 571.773L-166.078 565.534L582.553 997.756Z" fill="white"/>
<path d="M575.349 1010.23L571.747 1016.47L-176.883 584.25L-173.282 578.012L575.349 1010.23Z" fill="white"/>
<path d="M568.145 1022.71L564.543 1028.95L-184.087 596.727L-180.485 590.489L568.145 1022.71Z" fill="white"/>
<path d="M560.941 1035.19L557.34 1041.43L-191.291 609.204L-187.689 602.966L560.941 1035.19Z" fill="white"/>
<path d="M553.738 1047.67L550.136 1053.9L-198.495 621.682L-194.893 615.443L553.738 1047.67Z" fill="white"/>
<path d="M546.534 1060.14L542.932 1066.38L-205.698 634.159L-202.096 627.92L546.534 1060.14Z" fill="white"/>
<path d="M539.33 1072.62L535.729 1078.86L-212.902 646.636L-209.3 640.397L539.33 1072.62Z" fill="white"/>
<path d="M532.127 1085.1L528.525 1091.34L-220.106 659.113L-216.504 652.875L532.127 1085.1Z" fill="white"/>
<path d="M524.923 1097.57L521.321 1103.81L-227.309 671.59L-223.708 665.352L524.923 1097.57Z" fill="white"/>
<path d="M517.719 1110.05L514.117 1116.29L-234.513 684.067L-230.911 677.829L517.719 1110.05Z" fill="white"/>
<path d="M510.516 1122.53L506.914 1128.77L-241.717 696.545L-238.115 690.306L510.516 1122.53Z" fill="white"/>
<path d="M503.312 1135.01L499.71 1141.24L-248.92 709.022L-245.319 702.783L503.312 1135.01Z" fill="white"/>
<path d="M496.108 1147.48L492.506 1153.72L-256.124 721.499L-252.522 715.26L496.108 1147.48Z" fill="white"/>
<path d="M488.905 1159.96L485.303 1166.2L-263.328 733.976L-259.726 727.738L488.905 1159.96Z" fill="white"/>
<path d="M481.701 1172.44L478.099 1178.68L-270.532 746.453L-266.93 740.215L481.701 1172.44Z" fill="white"/>
<path d="M474.497 1184.91L470.895 1191.15L-277.735 758.931L-274.133 752.692L474.497 1184.91Z" fill="white"/>
<path d="M467.293 1197.39L463.692 1203.63L-284.939 771.408L-281.337 765.169L467.293 1197.39Z" fill="white"/>
<path d="M460.09 1209.87L456.488 1216.11L-292.143 783.885L-288.541 777.646L460.09 1209.87Z" fill="white"/>
<path d="M452.886 1222.35L449.284 1228.58L-299.346 796.362L-295.745 790.123L452.886 1222.35Z" fill="white"/>
<path d="M445.682 1234.82L442.08 1241.06L-306.55 808.839L-302.948 802.601L445.682 1234.82Z" fill="white"/>
<path d="M438.479 1247.3L434.877 1253.54L-313.754 821.316L-310.152 815.078L438.479 1247.3Z" fill="white"/>
<path d="M431.275 1259.78L427.673 1266.02L-320.957 833.794L-317.356 827.555L431.275 1259.78Z" fill="white"/>
<path d="M424.071 1272.25L420.469 1278.49L-328.161 846.271L-324.559 840.032L424.071 1272.25Z" fill="white"/>
<path d="M416.868 1284.73L413.266 1290.97L-335.365 858.748L-331.763 852.509L416.868 1284.73Z" fill="white"/>
<path d="M409.664 1297.21L406.062 1303.45L-342.569 871.225L-338.967 864.987L409.664 1297.21Z" fill="white"/>
<path d="M402.46 1309.69L398.858 1315.92L-349.772 883.702L-346.17 877.464L402.46 1309.69Z" fill="white"/>
<path d="M395.256 1322.16L391.655 1328.4L-356.976 896.179L-353.374 889.941L395.256 1322.16Z" fill="white"/>
<path d="M388.053 1334.64L384.451 1340.88L-364.18 908.657L-360.578 902.418L388.053 1334.64Z" fill="white"/>
<path d="M380.849 1347.12L377.247 1353.36L-371.383 921.134L-367.782 914.895L380.849 1347.12Z" fill="white"/>
<path d="M373.645 1359.59L370.043 1365.83L-378.587 933.611L-374.985 927.372L373.645 1359.59Z" fill="white"/>
<path d="M366.442 1372.07L362.84 1378.31L-385.791 946.088L-382.189 939.85L366.442 1372.07Z" fill="white"/>
<path d="M359.238 1384.55L355.636 1390.79L-392.994 958.565L-389.393 952.327L359.238 1384.55Z" fill="white"/>
<path d="M352.034 1397.03L348.432 1403.26L-400.198 971.042L-396.596 964.804L352.034 1397.03Z" fill="white"/>
<path d="M344.831 1409.5L341.229 1415.74L-407.402 983.52L-403.8 977.281L344.831 1409.5Z" fill="white"/>
<path d="M337.627 1421.98L334.025 1428.22L-414.606 995.997L-411.004 989.758L337.627 1421.98Z" fill="white"/>
<path d="M330.423 1434.46L326.821 1440.7L-421.809 1008.47L-418.207 1002.24L330.423 1434.46Z" fill="white"/>
<path d="M323.219 1446.93L319.618 1453.17L-429.013 1020.95L-425.411 1014.71L323.219 1446.93Z" fill="white"/>
<path d="M316.016 1459.41L312.414 1465.65L-436.217 1033.43L-432.615 1027.19L316.016 1459.41Z" fill="white"/>
<path d="M308.812 1471.89L305.21 1478.13L-443.42 1045.91L-439.819 1039.67L308.812 1471.89Z" fill="white"/>
<path d="M301.608 1484.37L298.006 1490.6L-450.624 1058.38L-447.022 1052.14L301.608 1484.37Z" fill="white"/>
<path d="M294.405 1496.84L290.803 1503.08L-457.828 1070.86L-454.226 1064.62L294.405 1496.84Z" fill="white"/>
</g>
</g>
<g opacity="0.45">
<mask id="mask2" mask-type="alpha" maskUnits="userSpaceOnUse" x="289" y="-259" width="381" height="389">
<path d="M440.9 -104.229C489.654 -156.073 508.019 -203.504 511.108 -220.739C556.929 -280.746 591.65 -231.879 603.06 -197.647C614.47 -163.415 583.584 -108.901 573.546 -82.3464C563.509 -55.7918 596.739 -12.491 595.301 26.6749C593.863 65.8409 547.416 67.8454 487.511 69.7269C427.607 71.6083 393.123 182.275 358.894 79.5791C324.664 -23.1165 379.957 -39.4238 440.9 -104.229Z" fill="#C4C4C4"/>
</mask>
<g mask="url(#mask2)">
<path d="M997.172 -115.664L993.571 -109.425L244.94 -541.647L248.542 -547.886L997.172 -115.664Z" fill="white"/>
<path d="M989.969 -103.187L986.367 -96.9483L237.736 -529.17L241.338 -535.409L989.969 -103.187Z" fill="white"/>
<path d="M982.765 -90.7097L979.163 -84.4711L230.533 -516.693L234.135 -522.932L982.765 -90.7097Z" fill="white"/>
<path d="M975.561 -78.2325L971.96 -71.994L223.329 -504.216L226.931 -510.455L975.561 -78.2325Z" fill="white"/>
<path d="M968.358 -65.7554L964.756 -59.5168L216.125 -491.739L219.727 -497.977L968.358 -65.7554Z" fill="white"/>
<path d="M961.154 -53.2782L957.552 -47.0396L208.922 -479.262L212.523 -485.5L961.154 -53.2782Z" fill="white"/>
<path d="M953.95 -40.801L950.348 -34.5624L201.718 -466.784L205.32 -473.023L953.95 -40.801Z" fill="white"/>
<path d="M946.747 -28.3238L943.145 -22.0853L194.514 -454.307L198.116 -460.546L946.747 -28.3238Z" fill="white"/>
<path d="M939.543 -15.8467L935.941 -9.60808L187.311 -441.83L190.912 -448.069L939.543 -15.8467Z" fill="white"/>
<path d="M932.339 -3.3695L928.737 2.86909L180.107 -429.353L183.709 -435.592L932.339 -3.3695Z" fill="white"/>
<path d="M925.135 9.10768L921.534 15.3463L172.903 -416.876L176.505 -423.114L925.135 9.10768Z" fill="white"/>
<path d="M917.932 21.5849L914.33 27.8234L165.699 -404.399L169.301 -410.637L917.932 21.5849Z" fill="white"/>
<path d="M910.728 34.062L907.126 40.3006L158.496 -391.921L162.098 -398.16L910.728 34.062Z" fill="white"/>
<path d="M903.524 46.5392L899.923 52.7778L151.292 -379.444L154.894 -385.683L903.524 46.5392Z" fill="white"/>
<path d="M896.321 59.0164L892.719 65.255L144.088 -366.967L147.69 -373.206L896.321 59.0164Z" fill="white"/>
<path d="M889.117 71.4935L885.515 77.7321L136.885 -354.49L140.486 -360.728L889.117 71.4935Z" fill="white"/>
<path d="M881.913 83.9707L878.311 90.2093L129.681 -342.013L133.283 -348.251L881.913 83.9707Z" fill="white"/>
<path d="M874.71 96.4479L871.108 102.686L122.477 -329.536L126.079 -335.774L874.71 96.4479Z" fill="white"/>
<path d="M867.506 108.925L863.904 115.164L115.274 -317.058L118.875 -323.297L867.506 108.925Z" fill="white"/>
<path d="M860.302 121.402L856.7 127.641L108.07 -304.581L111.672 -310.82L860.302 121.402Z" fill="white"/>
<path d="M853.098 133.879L849.497 140.118L100.866 -292.104L104.468 -298.343L853.098 133.879Z" fill="white"/>
<path d="M845.895 146.357L842.293 152.595L93.6624 -279.627L97.2643 -285.865L845.895 146.357Z" fill="white"/>
<path d="M838.691 158.834L835.089 165.072L86.4587 -267.15L90.0606 -273.388L838.691 158.834Z" fill="white"/>
<path d="M831.487 171.311L827.886 177.55L79.255 -254.673L82.8569 -260.911L831.487 171.311Z" fill="white"/>
<path d="M824.284 183.788L820.682 190.027L72.0513 -242.195L75.6532 -248.434L824.284 183.788Z" fill="white"/>
<path d="M817.08 196.265L813.478 202.504L64.8476 -229.718L68.4495 -235.957L817.08 196.265Z" fill="white"/>
<path d="M809.876 208.742L806.274 214.981L57.6439 -217.241L61.2458 -223.48L809.876 208.742Z" fill="white"/>
<path d="M802.673 221.22L799.071 227.458L50.4402 -204.764L54.0421 -211.002L802.673 221.22Z" fill="white"/>
<path d="M795.469 233.697L791.867 239.935L43.2365 -192.287L46.8384 -198.525L795.469 233.697Z" fill="white"/>
<path d="M788.265 246.174L784.663 252.413L36.0328 -179.809L39.6347 -186.048L788.265 246.174Z" fill="white"/>
<path d="M781.062 258.651L777.46 264.89L28.8291 -167.332L32.431 -173.571L781.062 258.651Z" fill="white"/>
<path d="M773.858 271.128L770.256 277.367L21.6254 -154.855L25.2273 -161.094L773.858 271.128Z" fill="white"/>
<path d="M766.654 283.606L763.052 289.844L14.4217 -142.378L18.0236 -148.617L766.654 283.606Z" fill="white"/>
<path d="M759.45 296.083L755.849 302.321L7.21803 -129.901L10.8199 -136.139L759.45 296.083Z" fill="white"/>
<path d="M752.247 308.56L748.645 314.798L0.014321 -117.424L3.61617 -123.662L752.247 308.56Z" fill="white"/>
<path d="M745.043 321.037L741.441 327.276L-7.18938 -104.946L-3.58753 -111.185L745.043 321.037Z" fill="white"/>
<path d="M737.839 333.514L734.237 339.753L-14.3931 -92.4692L-10.7912 -98.7078L737.839 333.514Z" fill="white"/>
<path d="M730.636 345.991L727.034 352.23L-21.5968 -79.9921L-17.9949 -86.2306L730.636 345.991Z" fill="white"/>
<path d="M723.432 358.469L719.83 364.707L-28.8005 -67.5149L-25.1986 -73.7535L723.432 358.469Z" fill="white"/>
<path d="M716.228 370.946L712.626 377.184L-36.0042 -55.0377L-32.4023 -61.2763L716.228 370.946Z" fill="white"/>
<path d="M709.024 383.423L705.423 389.661L-43.2079 -42.5605L-39.606 -48.7991L709.024 383.423Z" fill="white"/>
<path d="M701.821 395.9L698.219 402.139L-50.4116 -30.0834L-46.8097 -36.322L701.821 395.9Z" fill="white"/>
<path d="M694.617 408.377L691.015 414.616L-57.6153 -17.6062L-54.0134 -23.8448L694.617 408.377Z" fill="white"/>
<path d="M687.413 420.854L683.812 427.093L-64.819 -5.12899L-61.2171 -11.3676L687.413 420.854Z" fill="white"/>
<path d="M680.21 433.332L676.608 439.57L-72.0227 7.34814L-68.4208 1.10958L680.21 433.332Z" fill="white"/>
<path d="M673.006 445.809L669.404 452.047L-79.2264 19.8253L-75.6245 13.5868L673.006 445.809Z" fill="white"/>
<path d="M665.802 458.286L662.2 464.525L-86.4301 32.3025L-82.8282 26.0639L665.802 458.286Z" fill="white"/>
<path d="M658.599 470.763L654.997 477.002L-93.6338 44.7797L-90.0319 38.5411L658.599 470.763Z" fill="white"/>
<path d="M651.395 483.24L647.793 489.479L-100.837 57.2569L-97.2356 51.0183L651.395 483.24Z" fill="white"/>
<path d="M644.191 495.717L640.589 501.956L-108.041 69.7341L-104.439 63.4954L644.191 495.717Z" fill="white"/>
<path d="M636.988 508.195L633.386 514.433L-115.245 82.2112L-111.643 75.9726L636.988 508.195Z" fill="white"/>
<path d="M629.784 520.672L626.182 526.91L-122.449 94.6884L-118.847 88.4498L629.784 520.672Z" fill="white"/>
<path d="M622.58 533.149L618.978 539.388L-129.652 107.166L-126.05 100.927L622.58 533.149Z" fill="white"/>
<path d="M615.376 545.626L611.775 551.865L-136.856 119.643L-133.254 113.404L615.376 545.626Z" fill="white"/>
<path d="M608.173 558.103L604.571 564.342L-144.06 132.12L-140.458 125.881L608.173 558.103Z" fill="white"/>
</g>
</g>
<defs>
<filter id="filter0_d" x="-156.997" y="132.352" width="751.828" height="759.321" filterUnits="userSpaceOnUse" color-interpolation-filters="sRGB">
<feFlood flood-opacity="0" result="BackgroundImageFix"/>
<feColorMatrix in="SourceAlpha" type="matrix" values="0 0 0 0 0 0 0 0 0 0 0 0 0 0 0 0 0 0 127 0"/>
<feOffset dy="5.06"/>
<feGaussianBlur stdDeviation="2.53"/>
<feColorMatrix type="matrix" values="0 0 0 0 0 0 0 0 0 0 0 0 0 0 0 0 0 0 0.25 0"/>
<feBlend mode="normal" in2="BackgroundImageFix" result="effect1_dropShadow"/>
<feBlend mode="normal" in="SourceGraphic" in2="effect1_dropShadow" result="shape"/>
</filter>
<linearGradient id="paint0_linear" x1="1249.02" y1="1108.15" x2="369.33" y2="533.481" gradientUnits="userSpaceOnUse">
<stop stop-color="#EEB87D"/>
<stop offset="1" stop-color="#7431D7"/>
</linearGradient>
<linearGradient id="paint1_linear" x1="1153.42" y1="1004.1" x2="502.757" y2="579.044" gradientUnits="userSpaceOnUse">
<stop stop-color="#EEB87D"/>
<stop offset="1" stop-color="#7431D7"/>
</linearGradient>
<linearGradient id="paint2_linear" x1="1101.17" y1="1085.19" x2="603.945" y2="906.031" gradientUnits="userSpaceOnUse">
<stop stop-color="#FFD058"/>
<stop offset="0.0001" stop-color="#FACF63"/>
<stop offset="1" stop-color="#F82A5B"/>
</linearGradient>
<linearGradient id="paint3_linear" x1="744.236" y1="220.035" x2="89.9928" y2="9.40997" gradientUnits="userSpaceOnUse">
<stop stop-color="#FF9A58"/>
<stop offset="1" stop-color="#FC4853"/>
</linearGradient>
<linearGradient id="paint4_linear" x1="1237.09" y1="367.805" x2="48.1545" y2="-172.761" gradientUnits="userSpaceOnUse">
<stop stop-color="#FFD058"/>
<stop offset="0.0001" stop-color="#FACF63"/>
<stop offset="1" stop-color="#F82A5B"/>
</linearGradient>
<linearGradient id="paint5_linear" x1="879.667" y1="138.721" x2="104.112" y2="-328.298" gradientUnits="userSpaceOnUse">
<stop stop-color="#FFDC61"/>
<stop offset="1" stop-color="#FF0010"/>
</linearGradient>
<linearGradient id="paint6_linear" x1="1239.65" y1="413.389" x2="778.934" y2="-54.0009" gradientUnits="userSpaceOnUse">
<stop stop-color="#EEB87D"/>
<stop offset="1" stop-color="#7431D7"/>
</linearGradient>
</defs>
</svg>
